<svg id="Layer_1" data-name="Layer 1" xmlns="http://www.w3.org/2000/svg" xmlns:xlink="http://www.w3.org/1999/xlink" viewBox="0 0 437.4 191.63"><defs><style>.cls-1{fill:none;}.cls-2{isolation:isolate;}.cls-3{clip-path:url(#clip-path);}.cls-4{fill:#1d1d1b;}.cls-5{fill:#fff;}</style><clipPath id="clip-path" transform="translate(-75.1 -150.81)"><polygon class="cls-1" points="93.27 362.04 57.26 171.11 519.17 148.43 505.33 270.11 93.27 362.04"/></clipPath></defs><g class="cls-2"><g class="cls-3"><path class="cls-4" d="M181.73,259.68l-15.88,2.25-3.32,30.42,15.65-2.67A55.15,55.15,0,0,0,189,286.79a27.39,27.39,0,0,0,7.58-4.33,15,15,0,0,0,4.3-5.69,14.26,14.26,0,0,0,1-7,11.76,11.76,0,0,0-1.69-5.24,9.84,9.84,0,0,0-3.88-3.5,16.6,16.6,0,0,0-6.13-1.66,35.89,35.89,0,0,0-8.43.32m-.15-41.77-11,1.11-3,27.35,12.21-1.56a47.65,47.65,0,0,0,10.6-2.44,21.46,21.46,0,0,0,6.91-4,12.85,12.85,0,0,0,3.65-5.24,14.32,14.32,0,0,0,.71-6.35,8.79,8.79,0,0,0-5.32-7.53,18.7,18.7,0,0,0-6.11-1.52,43.55,43.55,0,0,0-8.62.13m-46.77,96,10.6-110.84,38.8-3.24a84.37,84.37,0,0,1,16.65.08,41.43,41.43,0,0,1,12.84,3.36,21.57,21.57,0,0,1,8.49,6.77,20.08,20.08,0,0,1,3.61,10.34,22,22,0,0,1-1.05,8.63,26.16,26.16,0,0,1-4.3,7.86,35.44,35.44,0,0,1-7.17,6.75,47.2,47.2,0,0,1-9.74,5.27l-.24.67a39.5,39.5,0,0,1,8.63,1.55,21.28,21.28,0,0,1,6.42,3.17,14.52,14.52,0,0,1,4.14,4.77,16.2,16.2,0,0,1,1.8,6.38,29.3,29.3,0,0,1-2.51,15.12,32.61,32.61,0,0,1-9.32,11.52,57.71,57.71,0,0,1-14.73,8.31,102.09,102.09,0,0,1-18.88,5.31l-44,8.22M173.9,166.68a109.82,109.82,0,0,0-40.66,10,104.14,104.14,0,0,0-32.94,23.89,90.44,90.44,0,0,0-19.86,33.81A78.6,78.6,0,0,0,78,272.76a77.81,77.81,0,0,0,15.52,34,87.75,87.75,0,0,0,27.88,23A100.47,100.47,0,0,0,156,340.56a110,110,0,0,0,70.3-15.18,101.79,101.79,0,0,0,25-21.49,90.34,90.34,0,0,0,15.74-27.21,80,80,0,0,0,4.71-31.16,76.58,76.58,0,0,0-8.06-30.69,82.25,82.25,0,0,0-20-25.43,93.57,93.57,0,0,0-30.59-17.35,104.64,104.64,0,0,0-39.24-5.37" transform="translate(-75.1 -150.81)"/><path class="cls-4" d="M193.09,338.74A108.51,108.51,0,0,1,156,340.56a100.47,100.47,0,0,1-34.63-10.82,87.75,87.75,0,0,1-27.88-23,77.81,77.81,0,0,1-15.52-34,78.6,78.6,0,0,1,2.43-38.39,90.44,90.44,0,0,1,19.86-33.81,104.14,104.14,0,0,1,32.94-23.89,109.82,109.82,0,0,1,40.66-10,104.64,104.64,0,0,1,39.24,5.37,93.57,93.57,0,0,1,30.59,17.35,82.25,82.25,0,0,1,20,25.43,76.58,76.58,0,0,1,8.06,30.69,80,80,0,0,1-4.71,31.16,90.34,90.34,0,0,1-15.74,27.21,101.79,101.79,0,0,1-25,21.49,108.62,108.62,0,0,1-33.25,13.36M173.76,165.39a111.24,111.24,0,0,0-41.25,10.1,105.47,105.47,0,0,0-33.45,24.22A91.66,91.66,0,0,0,78.91,234a79.74,79.74,0,0,0-2.44,39,78.76,78.76,0,0,0,15.79,34.45,88.9,88.9,0,0,0,28.31,23.28,102.17,102.17,0,0,0,35.11,10.92,111.61,111.61,0,0,0,69.07-14.19,103.93,103.93,0,0,0,24.4-19.57,93.62,93.62,0,0,0,16.44-24.81,83,83,0,0,0,7.2-28.54c-.12-.73-.24-1.46-.34-2.2s-.19-1.48-.27-2.23-.16-1.51-.22-2.27-.11-1.52-.15-2.3-.06-1.54-.08-2.31,0-1.55,0-2.32,0-1.54,0-2.32.07-1.54.12-2.31a78.16,78.16,0,0,0-10.45-27.9,85,85,0,0,0-20.67-22.88A95.89,95.89,0,0,0,211,170.06a106.55,106.55,0,0,0-37.25-4.67" transform="translate(-75.1 -150.81)"/><path class="cls-4" d="M395.44,182.21,365.13,271l-19.91,3.71.5-41c0-1.41,0-3,.1-4.66s.15-3.46.25-5.28.23-3.7.35-5.55.26-3.68.39-5.42l-.49.06q-.81,2.64-1.7,5.36c-.59,1.8-1.2,3.62-1.81,5.45l-1.86,5.5-1.85,5.45-15.39,44.11-21.53,4,.41-92.73,19-1.58-2.09,45.16q-.24,3.63-.46,7.29c-.15,2.43-.3,4.86-.47,7.29s-.33,4.85-.52,7.27-.39,4.8-.62,7.19l.51-.09c.82-2.48,1.69-5,2.56-7.51l2.66-7.59q1.33-3.81,2.64-7.58c.86-2.51,1.71-5,2.51-7.46L345,186.43l14.23-1.19-.15,43c0,2.24-.12,4.52-.2,6.82s-.16,4.6-.25,6.92l-.3,6.95c-.11,2.31-.21,4.61-.32,6.9l.46-.08q1.05-3.57,2.16-7.17c.73-2.39,1.48-4.8,2.22-7.19s1.49-4.79,2.21-7.17,1.43-4.73,2.1-7.06l13.56-43.69,14.77-1.24M346.65,158a69.18,69.18,0,0,0-28.58,8,82.87,82.87,0,0,0-24.21,19.52,89.41,89.41,0,0,0-16.14,27.84,83.42,83.42,0,0,0-4.86,32,70.37,70.37,0,0,0,7.59,29,59.91,59.91,0,0,0,17,20.34,56.83,56.83,0,0,0,22.93,10.36,61.9,61.9,0,0,0,26-.37,72.89,72.89,0,0,0,24.49-10.53,84.92,84.92,0,0,0,19.46-17.93A89.28,89.28,0,0,0,403.63,253a84.79,84.79,0,0,0,5.7-26.83,74.37,74.37,0,0,0-3.47-26.52,63.72,63.72,0,0,0-12.3-21.93,57.16,57.16,0,0,0-20.14-15A58.61,58.61,0,0,0,346.65,158" transform="translate(-75.1 -150.81)"/><path class="cls-4" d="M346.38,304.7a61.9,61.9,0,0,1-26,.37,56.83,56.83,0,0,1-22.93-10.36,59.91,59.91,0,0,1-17-20.34,70.37,70.37,0,0,1-7.59-29,83.42,83.42,0,0,1,4.86-32,89.41,89.41,0,0,1,16.14-27.84A82.87,82.87,0,0,1,318.07,166a69.18,69.18,0,0,1,28.58-8,58.61,58.61,0,0,1,26.77,4.81,57.16,57.16,0,0,1,20.14,15,63.72,63.72,0,0,1,12.3,21.93,74.37,74.37,0,0,1,3.47,26.52,84.79,84.79,0,0,1-5.7,26.83,89.28,89.28,0,0,1-13.3,23.21,84.92,84.92,0,0,1-19.46,17.93,72.89,72.89,0,0,1-24.49,10.53m.27-147.8a69.31,69.31,0,0,0-27,7.12,82.18,82.18,0,0,0-23.47,17.4,90.18,90.18,0,0,0-16.82,25.17,86.38,86.38,0,0,0-7.42,29.67q-.08,1.16-.12,2.31c0,.78,0,1.55,0,2.32s0,1.54,0,2.32,0,1.54.08,2.31.09,1.54.15,2.3.13,1.52.22,2.27.17,1.5.27,2.23.22,1.47.34,2.2A67.69,67.69,0,0,0,282.5,280a59.7,59.7,0,0,0,17.3,17.58,57.72,57.72,0,0,0,22.06,8.7,63.09,63.09,0,0,0,24.52-.73,73.69,73.69,0,0,0,23.21-9.66,84.5,84.5,0,0,0,18.85-16.28,90.14,90.14,0,0,0,13.63-21.1A87.17,87.17,0,0,0,409.36,234c0-.63-.06-1.26-.08-1.9s0-1.29,0-1.94,0-1.3,0-2,0-1.32.06-2,.07-1.34.12-2,.1-1.33.16-2,.13-1.33.21-2,.16-1.33.25-2a72,72,0,0,0-5.38-24.1,63.08,63.08,0,0,0-12.92-19.73,57.77,57.77,0,0,0-19.69-13.3,59.58,59.58,0,0,0-25.43-4.19" transform="translate(-75.1 -150.81)"/><path class="cls-4" d="M499.55,173.52l-18.26,75.75-10.9,2,7.26-29.92c.46-1.92,1-4,1.6-6.22s1.25-4.48,1.91-6.77,1.35-4.58,2-6.77,1.33-4.31,1.94-6.22l-.27,0-8.59,18.42-16.1,32.76-5,.87L453.26,217l-.59-18-.3,0c-.28,2-.59,4.15-.91,6.42s-.67,4.62-1,7-.74,4.69-1.14,6.94-.8,4.37-1.23,6.31l-7,31L429.22,259l17.65-81.06,13.88-1.16,1.38,36.2.42,13.52.35,0L469.45,212l17.64-37.43,12.46-1m-29.89-21.74a47.05,47.05,0,0,0-21.3,6.67A69.75,69.75,0,0,0,429.53,175a89.22,89.22,0,0,0-19.44,51.14,69,69,0,0,0,3.3,25.26,47.74,47.74,0,0,0,10.79,18.15,36.45,36.45,0,0,0,15.94,9.72,38.05,38.05,0,0,0,19.08.43A52.76,52.76,0,0,0,478.08,271a73.6,73.6,0,0,0,15.73-15.39,89.68,89.68,0,0,0,17.58-43.79,75.11,75.11,0,0,0-.85-23.33,54.92,54.92,0,0,0-7.7-19.27A39.5,39.5,0,0,0,489,156.11a35.77,35.77,0,0,0-19.29-4.33" transform="translate(-75.1 -150.81)"/><path class="cls-4" d="M459.2,279.65a38.05,38.05,0,0,1-19.08-.43,36.45,36.45,0,0,1-15.94-9.72,47.74,47.74,0,0,1-10.79-18.15,69,69,0,0,1-3.3-25.26A89.22,89.22,0,0,1,429.53,175a69.75,69.75,0,0,1,18.83-16.5,47.05,47.05,0,0,1,21.3-6.67A35.77,35.77,0,0,1,489,156.11a39.5,39.5,0,0,1,13.89,13.14,54.92,54.92,0,0,1,7.7,19.27,75.11,75.11,0,0,1,.85,23.33,89.68,89.68,0,0,1-17.58,43.79A73.6,73.6,0,0,1,478.08,271a52.76,52.76,0,0,1-18.88,8.62m10.54-128.8a47,47,0,0,0-20.14,5.93,68,68,0,0,0-18.15,14.69,87.27,87.27,0,0,0-13.88,21.37,90.68,90.68,0,0,0-7.5,25.38c-.09.66-.18,1.32-.25,2s-.15,1.32-.21,2-.12,1.33-.16,2-.09,1.33-.12,2-.05,1.33-.06,2,0,1.31,0,2,0,1.3,0,1.94.05,1.27.08,1.9a64,64,0,0,0,5.08,22.33,45.61,45.61,0,0,0,11.2,15.78,36.41,36.41,0,0,0,15.43,8.26,38.92,38.92,0,0,0,18.07.07,53.33,53.33,0,0,0,19.11-8.75,74.22,74.22,0,0,0,15.92-15.58A90.91,90.91,0,0,0,512,211.77a76,76,0,0,0-.85-23.62,55.81,55.81,0,0,0-7.78-19.54,40.13,40.13,0,0,0-14.06-13.34,36.29,36.29,0,0,0-19.54-4.42" transform="translate(-75.1 -150.81)"/><path class="cls-5" d="M162.53,292.35l3.32-30.42,15.88-2.25a35.89,35.89,0,0,1,8.43-.32,16.6,16.6,0,0,1,6.13,1.66,9.84,9.84,0,0,1,3.88,3.5,11.76,11.76,0,0,1,1.69,5.24,14.26,14.26,0,0,1-1,7,15,15,0,0,1-4.3,5.69,27.39,27.39,0,0,1-7.58,4.33,55.15,55.15,0,0,1-10.85,2.89l-15.65,2.67m5-46,3-27.35,11-1.11a43.55,43.55,0,0,1,8.62-.13,18.7,18.7,0,0,1,6.11,1.52,8.79,8.79,0,0,1,5.32,7.53,14.32,14.32,0,0,1-.71,6.35,12.85,12.85,0,0,1-3.65,5.24,21.46,21.46,0,0,1-6.91,4,47.65,47.65,0,0,1-10.6,2.44l-12.21,1.56m16.66-46.51-38.8,3.24-10.6,110.84,44-8.22a102.09,102.09,0,0,0,18.88-5.31,57.71,57.71,0,0,0,14.73-8.31,32.61,32.61,0,0,0,9.32-11.52,29.3,29.3,0,0,0,2.51-15.12,16.2,16.2,0,0,0-1.8-6.38,14.52,14.52,0,0,0-4.14-4.77,21.28,21.28,0,0,0-6.42-3.17,39.5,39.5,0,0,0-8.63-1.55l.24-.67a47.2,47.2,0,0,0,9.74-5.27,35.44,35.44,0,0,0,7.17-6.75,26.16,26.16,0,0,0,4.3-7.86,22,22,0,0,0,1.05-8.63,20.08,20.08,0,0,0-3.61-10.34,21.57,21.57,0,0,0-8.49-6.77,41.43,41.43,0,0,0-12.84-3.36,84.37,84.37,0,0,0-16.65-.08" transform="translate(-75.1 -150.81)"/><path class="cls-5" d="M395.44,182.21l-14.77,1.24-13.56,43.69c-.67,2.33-1.38,4.69-2.1,7.06s-1.46,4.77-2.21,7.17-1.49,4.8-2.22,7.19-1.46,4.79-2.16,7.17l-.46.08c.11-2.29.21-4.59.32-6.9l.3-6.95c.09-2.32.18-4.63.25-6.92s.15-4.58.2-6.82l.15-43L345,186.43l-16.69,45.93c-.8,2.46-1.65,4.95-2.51,7.46s-1.75,5-2.64,7.58L320.45,255c-.87,2.52-1.74,5-2.56,7.51l-.51.09c.23-2.39.43-4.78.62-7.19s.36-4.84.52-7.27.32-4.86.47-7.29.3-4.87.46-7.29l2.09-45.16-19,1.58-.41,92.73,21.53-4,15.39-44.11,1.85-5.45,1.86-5.5c.61-1.83,1.22-3.65,1.81-5.45s1.16-3.6,1.7-5.36l.49-.06c-.13,1.74-.26,3.57-.39,5.42s-.24,3.72-.35,5.55-.19,3.6-.25,5.28-.1,3.25-.1,4.66l-.5,41L365.13,271l30.31-88.74" transform="translate(-75.1 -150.81)"/><path class="cls-5" d="M499.55,173.52l-12.46,1L469.45,212l-6.55,14.44-.35,0L462.13,213l-1.38-36.2-13.88,1.16L429.22,259l11.85-2.21,7-31c.43-1.94.84-4.08,1.23-6.31s.78-4.59,1.14-6.94.71-4.72,1-7,.63-4.45.91-6.42l.3,0,.59,18,1.95,30.49,5-.87,16.1-32.76,8.59-18.42.27,0c-.61,1.91-1.27,4-1.94,6.22s-1.35,4.48-2,6.77-1.31,4.58-1.91,6.77-1.14,4.3-1.6,6.22l-7.26,29.92,10.9-2,18.26-75.75" transform="translate(-75.1 -150.81)"/></g></g></svg>